<svg width="240" height="100" viewBox="0 0 240 100" fill="none" xmlns="http://www.w3.org/2000/svg">
<g filter="url(#filter0_di_53_3257)">
<rect x="7" y="7" width="225.785" height="85.9589" rx="42.9795" fill="url(#paint0_radial_53_3257)"/>
<rect x="9.5" y="9.5" width="220.785" height="80.9589" rx="40.4795" stroke="url(#paint1_linear_53_3257)" stroke-width="5"/>
</g>
<path d="M77.3438 69.9062C74.8125 69.9062 73.5469 68.6562 73.5469 66.1562V59.5938C73.5469 57.0938 74.8125 55.8438 77.3438 55.8438H83.5312C86.0312 55.8438 87.2812 57.0938 87.2812 59.5938V66.1562C87.2812 68.6562 86.0312 69.9062 83.5312 69.9062H77.3438ZM82.5938 66.5781C83.3125 66.5781 83.7031 66.1719 83.7656 65.3594V60.3906C83.7656 59.5781 83.375 59.1719 82.5938 59.1719H78.2812C77.5625 59.1719 77.1719 59.5781 77.1094 60.3906V65.3594C77.1094 66.1719 77.5 66.5781 78.2812 66.5781H82.5938ZM75.2812 53.0781C74 53.0781 73.3594 52.5 73.3594 51.3438C73.3594 50.1875 73.9688 49.6094 75.1875 49.6094H85.4531C86.6719 49.6094 87.2812 50.1875 87.2812 51.3438C87.2812 52.5 86.6719 53.0781 85.4531 53.0781H75.2812ZM90.5625 69.3438C89.1875 69.3438 88.5 68.7344 88.5 67.5156C88.5 66.2969 89.1875 65.6875 90.5625 65.6875H112.359C113.734 65.6875 114.422 66.2969 114.422 67.5156C114.422 68.7344 113.734 69.3438 112.359 69.3438H90.5625ZM75.1875 46.7969C73.9688 46.7969 73.3594 46.2188 73.3594 45.0625C73.3594 43.9062 73.9688 43.3281 75.1875 43.3281H85.4531C86.6719 43.3281 87.2812 43.9062 87.2812 45.0625C87.2812 46.2188 86.6719 46.7969 85.4531 46.7969H75.1875ZM73.4531 40.6094C72.1406 40.6094 71.4844 40.0156 71.4844 38.8281C71.4844 37.6406 72.1406 37.0469 73.4531 37.0469H86.9062C88.0938 37.0469 88.6875 37.6406 88.6875 38.8281C88.6875 40.0156 88.0938 40.6094 86.9062 40.6094H73.4531ZM92.8594 54.5781C91.2969 54.5781 90.5156 53.9688 90.5156 52.75C90.5156 51.5312 91.2969 50.9219 92.8594 50.9219H99.9844V54.5781H92.8594ZM99.0469 40.75H102.938V66.6719H99.0469V40.75ZM75 34.2812C73.7188 34.2812 73.0781 33.6875 73.0781 32.5C73.0781 31.3125 73.7188 30.7188 75 30.7188H85.5938C86.875 30.7188 87.5156 31.3125 87.5156 32.5C87.5156 33.6875 86.875 34.2812 85.5938 34.2812H75ZM102.375 50.9219H109.641C111.172 50.9219 111.938 51.5312 111.938 52.75C111.938 53.9688 111.172 54.5781 109.641 54.5781H102.375V50.9219ZM91.9688 41.6875C90.4688 41.6875 89.7188 41.0781 89.7188 39.8594C89.7188 38.6406 90.4688 38.0312 91.9688 38.0312H111.328C112.828 38.0312 113.578 38.6406 113.578 39.8594C113.578 41.0781 112.828 41.6875 111.328 41.6875H91.9688ZM102.141 36.8594C101.609 36.8594 100.984 36.5312 100.266 35.875L97.4531 33.4844C96.7656 32.8906 96.2656 32.4375 95.9531 32.125C95.6719 31.7812 95.5312 31.4688 95.5312 31.1875C95.5312 29.9375 96.2188 29.3125 97.5938 29.3125C98.0938 29.3125 98.875 29.7188 99.9375 30.5312L101.062 31.4219C102.125 32.2656 102.891 32.9531 103.359 33.4844C103.828 34.0156 104.062 34.4844 104.062 34.8906C104.062 36.2031 103.422 36.8594 102.141 36.8594ZM125.297 71.4062C124.016 71.4062 123.375 70.625 123.375 69.0625V35.1719C123.375 33.5469 123.719 32.4062 124.406 31.75C125.125 31.0625 126.266 30.7188 127.828 30.7188H154.359C155.984 30.7188 157.141 31.0781 157.828 31.7969C158.516 32.4844 158.859 33.6094 158.859 35.1719V66.5781C158.859 68.2969 158.469 69.5312 157.688 70.2812C156.938 71.0312 155.766 71.3438 154.172 71.2188H151.5C150.094 71.2188 149.391 70.5625 149.391 69.25C149.391 67.9062 150.062 67.2344 151.406 67.2344H153.422C154.484 67.2344 155.016 66.7031 155.016 65.6406V36.3906C155.016 35.1406 154.391 34.5156 153.141 34.5156H129.141C128.484 34.5156 128 34.6719 127.688 34.9844C127.406 35.2969 127.266 35.7656 127.266 36.3906V69.0625C127.266 70.625 126.609 71.4062 125.297 71.4062ZM121.406 51.7656C120.094 51.7656 119.438 51.1406 119.438 49.8906C119.438 48.6094 120.094 47.9688 121.406 47.9688H123.984V51.7656H121.406ZM135.562 70.6094C134.344 70.6094 133.734 69.8438 133.734 68.3125V51.7656H126.562V47.9688H133.734V33.8125H137.484V47.9688H144.094V33.8125H147.844V47.9688H155.719V51.7656H147.844V68.2656C147.844 69.8281 147.219 70.6094 145.969 70.6094C144.719 70.6094 144.094 69.8281 144.094 68.2656V51.7656H137.484V68.3125C137.484 69.0312 137.312 69.5938 136.969 70C136.656 70.4062 136.188 70.6094 135.562 70.6094ZM158.062 47.9688H160.5C161.781 47.9688 162.422 48.6094 162.422 49.8906C162.422 51.1406 161.781 51.7656 160.5 51.7656H158.062V47.9688Z" fill="url(#paint2_linear_53_3257)"/>
<defs>
<filter id="filter0_di_53_3257" x="0" y="0" width="239.785" height="99.959" filterUnits="userSpaceOnUse" color-interpolation-filters="sRGB">
<feFlood flood-opacity="0" result="BackgroundImageFix"/>
<feColorMatrix in="SourceAlpha" type="matrix" values="0 0 0 0 0 0 0 0 0 0 0 0 0 0 0 0 0 0 127 0" result="hardAlpha"/>
<feMorphology radius="3" operator="dilate" in="SourceAlpha" result="effect1_dropShadow_53_3257"/>
<feOffset/>
<feGaussianBlur stdDeviation="2"/>
<feComposite in2="hardAlpha" operator="out"/>
<feColorMatrix type="matrix" values="0 0 0 0 0 0 0 0 0 0 0 0 0 0 0 0 0 0 0.5 0"/>
<feBlend mode="normal" in2="BackgroundImageFix" result="effect1_dropShadow_53_3257"/>
<feBlend mode="normal" in="SourceGraphic" in2="effect1_dropShadow_53_3257" result="shape"/>
<feColorMatrix in="SourceAlpha" type="matrix" values="0 0 0 0 0 0 0 0 0 0 0 0 0 0 0 0 0 0 127 0" result="hardAlpha"/>
<feOffset dy="3"/>
<feGaussianBlur stdDeviation="0.5"/>
<feComposite in2="hardAlpha" operator="arithmetic" k2="-1" k3="1"/>
<feColorMatrix type="matrix" values="0 0 0 0 1 0 0 0 0 1 0 0 0 0 1 0 0 0 1 0"/>
<feBlend mode="normal" in2="shape" result="effect2_innerShadow_53_3257"/>
</filter>
<radialGradient id="paint0_radial_53_3257" cx="0" cy="0" r="1" gradientUnits="userSpaceOnUse" gradientTransform="translate(119.893 49.9795) rotate(90) scale(42.9795 112.893)">
<stop stop-color="#6D756D"/>
<stop offset="1" stop-color="#0E0F0E"/>
</radialGradient>
<linearGradient id="paint1_linear_53_3257" x1="120.095" y1="34.5068" x2="120.095" y2="67.601" gradientUnits="userSpaceOnUse">
<stop stop-color="#D7B700"/>
<stop offset="0.25" stop-color="#FFFADE"/>
<stop offset="0.5" stop-color="#FFD900"/>
<stop offset="0.75" stop-color="#726100"/>
<stop offset="1" stop-color="#907B00"/>
</linearGradient>
<linearGradient id="paint2_linear_53_3257" x1="119.591" y1="42.44" x2="119.591" y2="58.61" gradientUnits="userSpaceOnUse">
<stop stop-color="#D7B700"/>
<stop offset="0.25" stop-color="#FFFADE"/>
<stop offset="0.5" stop-color="#FFD900"/>
<stop offset="0.75" stop-color="#726100"/>
<stop offset="1" stop-color="#907B00"/>
</linearGradient>
</defs>
</svg>
