<svg width="19" height="17" viewBox="0 0 19 17" fill="none" xmlns="http://www.w3.org/2000/svg">
<path d="M14.8354 0.662109H6.91372C4.75408 0.662109 2.97215 2.355 2.76853 4.51354C1.18185 4.91021 0 6.37855 0 8.12367V10.7902C0 12.5653 1.2224 14.0537 2.85073 14.4201L2.49615 15.6531C2.46205 15.7717 2.46496 15.8978 2.50448 16.0147C2.544 16.1316 2.61825 16.2336 2.71731 16.3072C2.81637 16.3807 2.93552 16.4223 3.05883 16.4263C3.18215 16.4303 3.30375 16.3966 3.40739 16.3296L6.22946 14.5063H10.3643C11.4747 14.5063 12.4704 13.9935 13.137 13.1869L15.1563 14.4913C15.2599 14.5583 15.3815 14.592 15.5048 14.588C15.6281 14.5839 15.7473 14.5424 15.8464 14.4688C15.9454 14.3953 16.0197 14.2933 16.0592 14.1764C16.0987 14.0595 16.1016 13.9333 16.0675 13.8148L15.6186 12.2537C17.542 11.8773 19 10.1418 19 8.06417V4.92718C19 2.57538 17.1317 0.662109 14.8354 0.662109ZM17.7884 8.06373C17.7884 9.74715 16.464 11.1168 14.8354 11.1168C14.7415 11.1168 14.6489 11.1386 14.5649 11.1805C14.4809 11.2224 14.4078 11.2832 14.3513 11.3582C14.2948 11.4332 14.2565 11.5203 14.2395 11.6127C14.2224 11.705 14.227 11.8 14.253 11.8903L14.4557 12.5955L13.7479 12.1382L13.2258 11.8008L12.6954 11.4583L12.317 11.2137C12.219 11.1504 12.1049 11.1167 11.9882 11.1168H6.91372C5.28561 11.1168 3.96074 9.74715 3.96074 8.06373V4.92718C3.96068 4.75308 3.97506 4.57927 4.00371 4.40755C4.24282 2.97072 5.45662 1.87327 6.91262 1.87327H14.8354C16.4635 1.87327 17.7884 3.24288 17.7884 4.9263V8.06373Z" fill="#F7EEFF"/>
<path d="M8.12538 6.38297C8.12538 5.91251 7.744 5.53113 7.27354 5.53113C6.80308 5.53113 6.42169 5.91251 6.42169 6.38297C6.42169 6.85344 6.80308 7.23482 7.27354 7.23482C7.744 7.23482 8.12538 6.85344 8.12538 6.38297Z" fill="#F7EEFF"/>
<path d="M11.7194 6.38297C11.7194 5.91251 11.338 5.53113 10.8675 5.53113C10.3971 5.53113 10.0157 5.91251 10.0157 6.38297C10.0157 6.85344 10.3971 7.23482 10.8675 7.23482C11.338 7.23482 11.7194 6.85344 11.7194 6.38297Z" fill="#F7EEFF"/>
<path d="M15.3137 6.38297C15.3137 5.91251 14.9323 5.53113 14.4618 5.53113C13.9914 5.53113 13.61 5.91251 13.61 6.38297C13.61 6.85344 13.9914 7.23482 14.4618 7.23482C14.9323 7.23482 15.3137 6.85344 15.3137 6.38297Z" fill="#F7EEFF"/>
</svg>
